<svg width="14" height="15" viewBox="0 0 14 15" fill="none" xmlns="http://www.w3.org/2000/svg">
<g clip-path="url(#clip0_4604_62)">
<path d="M6.26674 5.99999H7.40007V4.29999H9.10007V3.16666H7.40007V1.46666H6.26674V3.16666H4.56673V4.29999H6.26674V5.99999ZM4.00007 11.1C3.37673 11.1 2.8724 11.61 2.8724 12.2333C2.8724 12.8567 3.37673 13.3667 4.00007 13.3667C4.6234 13.3667 5.1334 12.8567 5.1334 12.2333C5.1334 11.61 4.6234 11.1 4.00007 11.1ZM9.66674 11.1C9.0434 11.1 8.53907 11.61 8.53907 12.2333C8.53907 12.8567 9.0434 13.3667 9.66674 13.3667C10.2901 13.3667 10.8001 12.8567 10.8001 12.2333C10.8001 11.61 10.2901 11.1 9.66674 11.1ZM4.0964 9.25833L4.1134 9.19033L4.6234 8.26666H8.84507C9.27007 8.26666 9.64407 8.03433 9.83674 7.68299L12.0241 3.71066L11.0381 3.16666H11.0324L10.4091 4.29999L8.84507 7.13333H4.86707L4.7934 6.98033L3.52407 4.29999L2.98573 3.16666L2.45307 2.03333H0.600067V3.16666H1.7334L3.7734 7.46766L3.0084 8.85599C2.91773 9.01466 2.86673 9.20166 2.86673 9.39999C2.86673 10.0233 3.37673 10.5333 4.00007 10.5333H10.8001V9.39999H4.23807C4.1644 9.39999 4.0964 9.33766 4.0964 9.25833Z" fill="white"/>
</g>
<defs>
<clipPath id="clip0_4604_62">
<rect width="13.6" height="13.6" fill="white" transform="translate(0.0333862 0.899994)"/>
</clipPath>
</defs>
</svg>
